<?xml version="1.0" encoding="UTF-8"?>
<svg id="Layer_1" data-name="Layer 1" xmlns="http://www.w3.org/2000/svg" viewBox="0 0 280.33 280.05">
  <defs>
    <style>
      .cls-1 {
        fill: #939294;
      }

      .cls-2 {
        fill: #1f1f21;
      }
    </style>
  </defs>
  <path class="cls-2" d="M139.55,280.01C66.51,281.33-.81,214.27,0,138.53,.79,66.49,65.9-.78,141.82,0c71.85,.74,139.87,65.87,138.49,142.85-1.27,71.23-65.69,138.89-140.76,137.15Zm.6-81.96c4.96-1.61,8.15-4.36,8.14-9.92-.02-9.25,.33-18.52-.09-27.75-.28-6.1,1.39-8.7,7.96-8.33,8.88,.5,17.81,.11,26.72,.1,5.59,0,10.52-1.86,10.63-8.03,.12-6.43-4.91-8.04-10.56-8.01-9.25,.05-18.51-.27-27.75,.1-5.49,.22-7.17-1.83-6.97-7.12,.33-8.9,.02-17.82,.1-26.73,.05-5.9-1.1-11.66-8.17-11.41-6.77,.24-7.91,6.02-7.88,11.81,.05,8.57-.26,17.14,.09,25.7,.23,5.63-1.43,8.05-7.47,7.75-8.89-.43-17.81-.04-26.72-.12-5.97-.05-11.49,1.65-11.14,8.38,.29,5.72,5.46,7.72,11.04,7.68,8.91-.05,17.83,.29,26.72-.09,5.91-.25,7.79,2.01,7.57,7.73-.35,8.9-.05,17.82-.08,26.73-.02,5.6,2.4,9.42,7.85,11.53Z"/>
  <path class="cls-1" d="M140.16,198.05c-5.45-2.11-7.87-5.93-7.85-11.53,.03-8.91-.27-17.83,.08-26.73,.22-5.72-1.66-7.98-7.57-7.73-8.89,.38-17.81,.04-26.72,.09-5.58,.03-10.75-1.96-11.04-7.68-.34-6.73,5.17-8.43,11.14-8.38,8.91,.08,17.83-.31,26.72,.12,6.04,.29,7.7-2.12,7.47-7.75-.35-8.55-.05-17.13-.09-25.7-.03-5.79,1.11-11.57,7.88-11.81,7.07-.25,8.22,5.51,8.17,11.41-.08,8.91,.23,17.83-.1,26.73-.2,5.28,1.48,7.33,6.97,7.12,9.24-.37,18.5-.05,27.75-.1,5.65-.03,10.68,1.58,10.56,8.01-.11,6.16-5.04,8.02-10.63,8.03-8.91,0-17.84,.4-26.72-.1-6.57-.37-8.24,2.23-7.96,8.33,.42,9.23,.06,18.5,.09,27.75,.01,5.56-3.18,8.31-8.14,9.92Z"/>
</svg>