<?xml version="1.0" encoding="UTF-8"?>
<svg id="Layer_1" data-name="Layer 1" xmlns="http://www.w3.org/2000/svg" viewBox="0 0 27.62 13.06">
  <path d="M12.62,13.04c-2.62,0-5.25,0-7.87,0-.59,0-1.18-.04-1.76-.1-1.44-.15-2.67-1.27-2.81-2.71C-.06,7.74-.06,5.23,.19,2.74,.32,1.42,1.56,.28,2.88,.12,3.43,.05,3.98,0,4.53,0,9.9,0,15.26,0,20.63,0c.47,0,.93,.04,1.4,.09,1.72,.19,2.93,1.39,3.02,3.12,.11,2.19,.11,4.39,0,6.58-.09,1.77-1.28,2.99-3.04,3.16-1.99,.2-3.98,.06-5.97,.09-1.14,.02-2.28,0-3.42,0h0Zm-.06-12.04c-2.62,0-5.25,0-7.87,0-.45,0-.89,.03-1.34,.07-1.31,.12-2.09,.87-2.22,2.16-.18,1.78-.07,3.57-.08,5.36,0,2.7,.75,3.45,3.45,3.45,5.39,0,10.78,0,16.16,0,.34,0,.69-.02,1.03-.06,1.52-.14,2.35-.96,2.38-2.47,.04-1.99,.04-3.98,0-5.97-.03-1.51-.86-2.34-2.37-2.48-.4-.04-.81-.06-1.22-.06-2.64,0-5.29,0-7.93,0h0Z" style="fill: #838484;"/>
  <path d="M26.15,6.5v-1.52c0-.36,.15-.43,.46-.26,.72,.39,1.02,1.03,1.02,1.81s-.3,1.42-1.01,1.82c-.28,.16-.47,.11-.47-.26v-1.58h0Z" style="fill: #838484;"/>
  <path d="M7.74,11.01c-1.46,0-2.93,.02-4.39,0-.8-.02-1.22-.41-1.26-1.2-.11-2.17-.11-4.35,0-6.52,.04-.82,.46-1.22,1.3-1.23,2.93-.04,5.86-.03,8.78-.05,.31,0,.43,.11,.43,.43,0,2.72-.01,5.45,0,8.17,0,.41-.21,.46-.53,.46-1.44,0-2.89,0-4.33,0v-.04h0Z" style="fill: #4eb55a;"/>
  <path d="M17.16,11.01c1.53,0,3.06,.02,4.6,0,.83-.02,1.28-.41,1.32-1.2,.12-2.17,.11-4.35,0-6.52-.04-.82-.49-1.22-1.36-1.23-3.06-.04-6.13-.03-9.2-.05-.32,0-.46,.11-.45,.43,0,2.72,.01,5.45,0,8.17,0,.41,.22,.46,.56,.46,1.51,0,3.02,0,4.53,0v-.04h0Z" style="fill: #4eb55a;"/>
  <path d="M12.62,13.04c-2.62,0-5.25,0-7.87,0-.59,0-1.18-.04-1.76-.1-1.44-.15-2.67-1.27-2.81-2.71C-.06,7.74-.06,5.23,.19,2.74,.32,1.42,1.56,.28,2.88,.12,3.43,.05,3.98,0,4.53,0,9.9,0,15.26,0,20.63,0c.47,0,.93,.04,1.4,.09,1.72,.19,2.93,1.39,3.02,3.12,.11,2.19,.11,4.39,0,6.58-.09,1.77-1.28,2.99-3.04,3.16-1.99,.2-3.98,.06-5.97,.09-1.14,.02-2.28,0-3.42,0h0Zm-.06-12.04c-2.62,0-5.25,0-7.87,0-.45,0-.89,.03-1.34,.07-1.31,.12-2.09,.87-2.22,2.16-.18,1.78-.07,3.57-.08,5.36,0,2.7,.75,3.45,3.45,3.45,5.39,0,10.78,0,16.16,0,.34,0,.69-.02,1.03-.06,1.52-.14,2.35-.96,2.38-2.47,.04-1.99,.04-3.98,0-5.97-.03-1.51-.86-2.34-2.37-2.48-.4-.04-.81-.06-1.22-.06-2.64,0-5.29,0-7.93,0h0Z" style="fill: #838484;"/>
  <path d="M26.15,6.5v-1.52c0-.36,.15-.43,.46-.26,.72,.39,1.02,1.03,1.02,1.81s-.3,1.42-1.01,1.82c-.28,.16-.47,.11-.47-.26v-1.58h0Z" style="fill: #838484;"/>
  <path d="M7.74,11.01c-1.46,0-2.93,.02-4.39,0-.8-.02-1.22-.41-1.26-1.2-.11-2.17-.11-4.35,0-6.52,.04-.82,.46-1.22,1.3-1.23,2.93-.04,5.86-.03,8.78-.05,.31,0,.43,.11,.43,.43,0,2.72-.01,5.45,0,8.17,0,.41-.21,.46-.53,.46-1.44,0-2.89,0-4.33,0v-.04h0Z" style="fill: #4eb55a;"/>
  <path d="M17.16,11.01c1.53,0,3.06,.02,4.6,0,.83-.02,1.28-.41,1.32-1.2,.12-2.17,.11-4.35,0-6.52-.04-.82-.49-1.22-1.36-1.23-3.06-.04-6.13-.03-9.2-.05-.32,0-.46,.11-.45,.43,0,2.72,.01,5.45,0,8.17,0,.41,.22,.46,.56,.46,1.51,0,3.02,0,4.53,0v-.04h0Z" style="fill: #4eb55a;"/>
</svg>