<?xml version="1.0" encoding="UTF-8"?>
<svg id="Layer_2" data-name="Layer 2" xmlns="http://www.w3.org/2000/svg" viewBox="0 0 27.17 12.85">
  <g id="Layer_1-2" data-name="Layer 1">
    <path d="M12.41,12.83c-2.58,0-5.16,0-7.74,0-.58,0-1.16-.04-1.74-.1-1.41-.15-2.63-1.25-2.76-2.67C-.06,7.61-.06,5.15,.19,2.7,.32,1.4,1.54,.28,2.84,.11,3.37,.05,3.91,0,4.45,0,9.73,0,15.01,0,20.29,0c.46,0,.92,.03,1.38,.09,1.7,.19,2.88,1.37,2.98,3.07,.11,2.16,.11,4.32,0,6.48-.09,1.74-1.26,2.94-2.99,3.11-1.95,.2-3.92,.06-5.88,.08-1.12,.02-2.24,0-3.36,0h0Zm-.06-11.85c-2.58,0-5.16,0-7.74,0-.44,0-.88,.03-1.32,.07-1.29,.12-2.05,.85-2.19,2.12-.18,1.75-.07,3.52-.08,5.27,0,2.66,.74,3.39,3.39,3.39,5.3,0,10.6,0,15.9,0,.34,0,.68-.02,1.02-.06,1.49-.13,2.31-.94,2.34-2.43,.04-1.96,.04-3.92,0-5.88-.03-1.49-.85-2.3-2.34-2.44-.4-.04-.8-.06-1.2-.06-2.6,0-5.2,0-7.8,0h0Z" style="fill: #838484;"/>
    <path d="M25.72,6.39v-1.49c0-.35,.15-.42,.45-.26,.71,.38,1,1.01,1,1.78s-.3,1.4-.99,1.79c-.28,.16-.46,.11-.46-.25v-1.55h0Z" style="fill: #838484;"/>
    <path d="M7.61,10.83c-1.44,0-2.88,.02-4.32,0-.78-.02-1.2-.41-1.24-1.18-.11-2.14-.11-4.28,0-6.42,.04-.81,.46-1.2,1.27-1.21,2.88-.03,5.76-.03,8.64-.05,.3,0,.43,.1,.43,.42,0,2.68-.01,5.36,0,8.04,0,.41-.2,.45-.52,.45-1.42,0-2.84,0-4.26,0v-.04h0Z" style="fill: #4eb55a;"/>
  </g>
</svg>