<?xml version="1.0" encoding="UTF-8"?>
<svg  id="Layer_2" data-name="Layer 2" xmlns="http://www.w3.org/2000/svg" viewBox="0 0 27.14 12.86">
  <g id="Layer_1-2" data-name="Layer 1">
    <g id="Layer_1-2" data-name="Layer 1-2">
      <g>
        <path d="M12.31,12.82c-2.82,0-5.64,0-8.46,0-.95,0-1.87-.14-2.64-.81C.4,11.31,.04,10.4,.03,9.36c-.02-1.96-.05-3.92,0-5.88C.1,1.44,1.23,.28,3.25,.06,3.69,.02,4.13,0,4.57,0,9.74,0,14.9,0,20.06,0c.48,0,.96,.02,1.44,.07,1.87,.21,3.02,1.33,3.11,3.2,.11,2.12,.11,4.24,0,6.36-.1,1.79-1.25,2.94-3.05,3.13-1.7,.18-3.4,.06-5.1,.08-1.38,.02-2.76,0-4.14,0h0s0-.01,0-.01Zm.08-11.84c-2.56,0-5.12,0-7.68,0-.52,0-1.04,.03-1.56,.08-1.15,.1-1.98,.83-2.07,1.97-.18,2.27-.19,4.56,0,6.83,.09,1.07,.93,1.8,2,1.91,.52,.05,1.04,.09,1.56,.09,5.14,0,10.29,0,15.43,0,.34,0,.68-.01,1.02-.04,1.8-.15,2.54-.91,2.57-2.72,.03-1.64,.03-3.28,0-4.92-.02-2.39-.72-3.1-3.11-3.18-.2,0-.4,0-.6,0h-7.56Z" style="fill: #848484;"/>
        <path d="M25.66,4.52c.96,.23,1.49,.97,1.47,1.94-.02,.95-.55,1.65-1.46,1.86-.07-1.25-.04-2.49-.01-3.79h0Z" style="fill: #848484;"/>
        <path d="M5.89,2.03V10.85c-1.03,0-2.04,.12-3.04-.09-.59-.12-.85-.64-.87-1.23-.03-.84-.02-1.68-.03-2.52,0-1.12-.02-2.24,0-3.36,.02-1.23,.4-1.61,1.61-1.67,.68-.03,1.36-.01,2.04-.01,.08,0,.15,.03,.29,.05h0Z" style="fill: #eb4136;"/>
      </g>
    </g>
  </g>
</svg>