<?xml version="1.0" encoding="UTF-8"?>
<svg id="Layer_1" data-name="Layer 1" xmlns="http://www.w3.org/2000/svg" viewBox="0 0 226.45 107.04">
  <defs>
    <style>
      .cls-1 {
        fill: #fbca10;
      }

      .cls-2 {
        fill: #838383;
      }
    </style>
  </defs>
  <path class="cls-2" d="M103.03,.01c21.48,0,42.95-.05,64.43,.04,4.81,.02,9.66,.29,14.43,.87,12.07,1.49,21.97,11.43,22.9,23.49,1.48,19.1,1.48,38.25,.05,57.35-.97,12.93-10.55,22.56-23.32,24.15-4.45,.55-8.96,.83-13.44,.84-43.12,.06-86.24,.06-129.36,0-4.65,0-9.32-.31-13.94-.81-12.89-1.4-22.83-11.32-23.77-24.31-1.36-18.77-1.35-37.6,0-56.37C1.95,12.02,11.81,2.28,25.16,.82,29.61,.33,34.12,.07,38.6,.05,60.08-.03,81.55,.01,103.03,.01Zm.21,8.52c-25.45,.19-50.92-1.31-76.36,.35-10.09,.66-17.25,7.58-17.76,17.54-.92,17.95-.89,35.93-.02,53.88,.48,9.89,7.8,16.83,17.74,17.64,4.8,.39,9.63,.63,14.45,.64,41.27,.05,82.54,.05,123.81,0,4.48,0,8.98-.24,13.45-.62,10.98-.93,17.63-7.68,18.31-18.62,1.01-16.29,.98-32.59,.19-48.88-.72-14.92-6.56-21.46-21.44-21.79-24.11-.54-48.25-.14-72.37-.14Z"/>
  <path class="cls-2" d="M213.78,53.56c0-4.32,.1-8.64-.04-12.95-.09-2.8,.72-3.59,3.43-2.4,5.42,2.38,8.9,8.38,8.79,15.53-.11,6.92-3.69,12.87-8.92,14.96-2.24,.89-3.38,.58-3.3-2.19,.14-4.31,.04-8.63,.03-12.95Z"/>
  <path class="cls-1" d="M63.48,90.12c-11.98,0-23.97,.22-35.95-.09-6.95-.18-10.51-3.91-10.57-10.67-.16-17.31-.15-34.62,0-51.93,.05-6.38,3.86-10.59,10.13-10.67,24.3-.28,48.61-.24,72.91-.39,2.55-.02,2.98,1.16,2.98,3.35-.05,22.47-.09,44.94,.03,67.41,.02,3.3-1.7,3.31-4.05,3.3-11.82-.05-23.64-.02-35.46-.02,0-.1,0-.19,0-.29Z"/>
</svg>