<?xml version="1.0" encoding="UTF-8"?>
<svg id="Layer_2" data-name="Layer 2" xmlns="http://www.w3.org/2000/svg" viewBox="0 0 161.01 106.26">
  <defs>
    <style>
      .cls-1 {
        fill: #0a84ff;
      }
    </style>
  </defs>
  <g id="Layer_1-2" data-name="Layer 1">
    <path class="cls-1" d="M60.01,.21c9.71,0,19.45,.52,29.12-.1,19.64-1.26,28.49,9,29.29,25.25,.38,7.74,1.78,8.1,7.84,3.47,6.08-4.65,11.69-9.93,17.85-14.46,9.1-6.69,15.06-4.02,16.67,7.2,.36,2.51,.2,5.1,.2,7.65,0,17.37,.02,34.74-.05,52.11-.02,5.19-.2,11.38-6.26,12.47-3.84,.69-8.88-1.33-12.39-3.64-6.36-4.2-11.89-9.62-17.93-14.33-3.58-2.79-5.48-1.14-5.94,2.9-.34,3.04-.25,6.17-.96,9.12-2.76,11.48-9.62,17.8-21.59,18.03-24.52,.47-49.05,.55-73.57,.01-13.6-.3-21.6-8.72-21.93-22.55C-.12,63.43-.11,43.49,.34,23.58,.68,8.4,9.06,.67,24.76,.26c11.74-.31,23.5-.06,35.25-.05Zm-.32,7.49s0,.04,0,.05c-11.73,0-23.47-.36-35.18,.11-10.94,.44-16.07,5.19-16.36,16.03-.52,19.36-.5,38.76-.02,58.12,.27,10.94,5.35,16.15,16.03,16.35,23.45,.44,46.92,.45,70.37,0,9.83-.19,15.3-5.21,15.67-15.28,.74-19.85,.78-39.78,.05-59.63-.39-10.68-6.05-15.27-16.91-15.66-11.21-.4-22.44-.09-33.66-.09Zm93.83,45.59c-.06,0-.13,0-.19,0,0-9.12,.2-18.25-.08-27.37-.15-4.88-3.36-6.45-7.16-3.59-8.5,6.39-16.99,12.88-24.76,20.11-5.12,4.77-4.49,17.37,.83,22.2,7.12,6.46,14.69,12.48,22.46,18.14,6.1,4.45,8.45,3.05,8.81-5.16,.36-8.1,.08-16.22,.08-24.33Z"/>
  </g>
</svg>