<?xml version="1.0" encoding="UTF-8"?>
<svg id="Layer_1" data-name="Layer 1" xmlns="http://www.w3.org/2000/svg" viewBox="0 0 343.49 293.95">
  <defs>
    <style>
      .cls-1 {
        fill: #040404;
      }
    </style>
  </defs>
  <path class="cls-1" d="M90.33,187.92c-22.63,0-42.82-.88-62.88,.32-12.33,.74-21.93-3.29-26.17-13.57-3.6-8.75,.77-17.14,8.46-24.68C57.16,103.47,103.79,56.15,150.97,9.37c12.58-12.48,28.95-12.5,41.5-.06,47.18,46.77,93.82,94.09,141.23,140.62,7.65,7.51,12.09,15.83,8.54,24.66-4.18,10.41-13.84,14.3-26.1,13.62-20.08-1.12-40.27-.3-62.97-.3,0,25.47,.35,49.55-.12,73.62-.35,17.9-14.45,31.9-32.46,32.12-32.53,.4-65.08,.4-97.61,0-18.01-.22-32.18-14.2-32.54-32.04-.48-24.07-.12-48.17-.12-73.7Z"/>
</svg>