<?xml version="1.0" encoding="UTF-8"?>
<svg id="Layer_1" data-name="Layer 1" xmlns="http://www.w3.org/2000/svg" viewBox="0 0 264.68 228.62">
  <defs>
    <style>
      .cls-1 {
        fill: #fff;
      }
    </style>
  </defs>
  <path class="cls-1" d="M131.86,228.57c-14.23,0-28.45-.18-42.67,.05-15.26,.25-21.59-9.06-24.02-22.23-.85-4.59,.05-9.47-.17-14.2-.56-12.37,3.23-29.05-3.26-35.87-6.29-6.61-23.23-3.13-35.5-3.97-4.67-.32-9.62,.6-14-.63-11.87-3.34-16.46-20.42-7.62-29.36C40.17,86.4,76.05,50.75,111.82,14.98c2.24-2.24,4.73-4.27,6.66-6.74,8.78-11.23,16.41-10.65,26.5-.32,37.52,38.47,75.95,76.05,113.58,114.41,3.7,3.77,7.48,12.53,5.63,15.57-3.69,6.06-10.59,11.74-17.37,14.01-15.51,5.2-37.63-9.75-47.09,7.55-6.66,12.16-.3,30.99-1.59,46.69-1.1,13.36-8.39,22.59-23.62,22.44-14.22-.14-28.45-.03-42.67-.03Zm-.19-18.35c16.21-.78,37.6,3.76,42.66-3.34,7.66-10.75,4.02-29.59,5.02-45.01,.31-4.74,.44-9.56-.04-14.27-.95-9.36,1.29-14.71,12.35-14.54,14.01,.21,28.04-1.07,42.06-1.71-9.32-11.22-18.02-23.03-28.08-33.54-19.76-20.63-40.74-40.09-60.27-60.91-9.72-10.36-16.69-11.09-26.74-.48-20.72,21.89-42.7,42.59-63.68,64.24-9.17,9.47-17.16,20.09-25.68,30.19,12.36,.8,24.83,2.95,37.07,2.06,15.01-1.1,19.88,4.76,17.82,18.75-.46,3.11-.22,6.35-.04,9.51,.9,15.48-3.82,36.84,4.41,44.8,8.51,8.23,29.61,3.45,43.14,4.24Z"/>
</svg>