<?xml version="1.0" encoding="UTF-8"?>
<svg id="Layer_1" data-name="Layer 1" xmlns="http://www.w3.org/2000/svg" viewBox="0 0 450.05 449.59">
  <defs>
    <style>
      .cls-1 {
        fill: #f8f7f7;
      }
    </style>
  </defs>
  <path class="cls-1" d="M223.04,.01c124.1-1.17,225.99,98.74,227,222.6,1.01,123.55-99.89,226.28-222.95,226.97C103.35,450.28,.74,349.55,0,226.64-.74,102.55,99.02,1.18,223.04,.01Zm3.75,381.9c68.69-.75,131.95-49.23,145.31-111.38,6.65-30.93,2.42-35.69-28.43-27.5-78.8,20.9-157.34,20.71-236.17,.3-31.43-8.14-37.81-1.07-29.35,30.4,16.57,61.64,81.52,108.91,148.63,108.18Zm-72.94-238.02c-17.43,2.74-22.24,15.97-20.86,32.85,1.3,15.8,10.14,27.13,26.18,25.25,17.54-2.06,25.7-16.35,23.67-33.01-1.74-14.31-9.6-26.04-28.99-25.09Zm165.95,29.79c-2.15-15.62-7.21-29.82-26.8-29.63-16.97,.17-23.79,11.23-24.38,27.13-.67,17.88,7.57,30.8,25.32,30.92,15.57,.11,22.92-13.08,25.85-28.42Z"/>
  <path class="cls-1" d="M352.14,261.72c-4.25,24.65-13.77,34.05-33.79,37.86-62.83,11.96-125,12.24-187.7-.53-19.18-3.91-29.14-11.81-29.47-35.49,84.61,22.09,167.3,23.87,250.96-1.85Z"/>
</svg>