<?xml version="1.0" encoding="UTF-8"?>
<svg id="Layer_1" data-name="Layer 1" xmlns="http://www.w3.org/2000/svg" viewBox="0 0 310.26 535.85">
  <defs>
    <style>
      .cls-1 {
        fill: #6a6a6a;
      }
    </style>
  </defs>
  <path class="cls-1" d="M302.82,240.49c-8.17,12.26-27.3,26.38-27.3,26.38,0,0-14.86,11.33-20.98,19.13-6.13,7.8-11.7,13.99-11.7,23.22v205.31c0,11.78-9.54,21.32-21.32,21.32H88.75c-11.78,0-21.32-9.54-21.32-21.32v-205.31c0-9.23-5.57-15.42-11.7-23.22s-20.98-19.13-20.98-19.13c0,0-19.13-14.12-27.3-26.38C-.73,228.24,.02,218.03,.02,218.03V51.85C.02,23.21,23.35,0,52.14,0h205.98c28.79,0,52.12,23.21,52.12,51.85V218.03s.74,10.21-7.43,22.46Z"/>
</svg>