<?xml version="1.0" encoding="UTF-8"?>
<svg id="Layer_1" data-name="Layer 1" xmlns="http://www.w3.org/2000/svg" viewBox="0 0 307.85 439.78">
  <defs>
    <style>
      .cls-1 {
        fill: #6a6a6a;
      }
    </style>
  </defs>
  <path class="cls-1" d="M307.85,42.52V178.67c0,8.29-4.14,17.48-9.18,24.89-5.04,7.4-21.93,18.66-33.48,29.33-11.56,10.67-10.67,19.85-10.67,19.85v167.2c0,10.95-8.88,19.84-19.84,19.84H73.18c-10.96,0-19.84-8.89-19.84-19.84V252.74s.88-9.18-10.67-19.85c-11.56-10.67-28.45-21.93-33.48-29.33-5.04-7.41-9.19-16.6-9.19-24.89V42.52C0,19.04,19.04,0,42.52,0h222.81c23.49,0,42.52,19.04,42.52,42.52Z"/>
</svg>