<?xml version="1.0" encoding="UTF-8"?>
<svg fill="#56595d" id="Layer_1" data-name="Layer 1" xmlns="http://www.w3.org/2000/svg" viewBox="0 0 225.86 244.52">
  <path d="M72.42,75.61c.66,17.23-1.61,34.75,4.46,51.49,6.04,16.67,17.2,27.1,35.79,26.92,18.57-.17,31.08-10.44,35.07-27.59,7.65-32.85,7.61-66.34-.36-99.16C143.21,10.07,130.51-.16,112.1,0c-18.42,.16-29.39,11.08-35.27,27.79-5.47,15.56-3.76,31.79-4.4,47.82Zm37.42,167.94c0,.26,0,.52,0,.78,12.42,0,24.86,.53,37.23-.19,8.02-.46,19.82,1.49,19.59-11.04-.17-9.43-10.47-8.61-17.52-9.99-8.28-1.62-19.61-.32-21.03-11.26-1.67-12.9,11.02-15.06,19.62-18.76,29.08-12.5,44.4-35.22,48.6-65.51,1.57-11.33,7.29-29.61-8.2-31.63-14.45-1.88-9.88,16.54-11.6,26.5-6.64,38.67-27.78,57.11-65.7,56.39-36.19-.69-56-18.59-62.01-56.19-.78-4.89-.88-9.89-1.48-14.82-.78-6.42-2.83-13.33-10.1-13.34-7.65,0-9.23,7.33-9.49,13.62-1.4,33.32,9.28,60.69,38.38,79.62,10.83,7.04,31.15,6.4,30.32,23.02-.83,16.59-19.87,9.63-30.5,13.93-5,2.02-8.81,4.94-8.03,10.62,.81,5.94,6.1,7.91,11.01,8.07,13.63,.46,27.28,.16,40.92,.16Z"/>
</svg>