<?xml version="1.0" encoding="UTF-8"?>
<svg id="Layer_1" data-name="Layer 1" xmlns="http://www.w3.org/2000/svg" viewBox="0 0 359.83 359.5">
  <defs>
    <style>
      .cls-1 {
        fill: #107ff2;
      }

      .cls-2 {
        fill: #f1f1f0;
      }
    </style>
  </defs>
  <path class="cls-1" d="M177.59,359.42C82,359.99-1.25,275.21,.01,177.58,1.25,82.07,84.55-1.25,182.25,.01c95.65,1.24,178.84,84.68,177.57,182.24-1.25,95.65-84.7,180.22-182.23,177.17Zm-14.57-220.5c0,34.59-.05,67.06,.04,99.53,.02,7.59-.3,15.31,.94,22.73,1.41,8.47,7.65,13.24,16.17,13.12,8.54-.12,14.5-5.13,15.76-13.62,1.11-7.46,.85-15.15,.86-22.74,.08-32.4,.03-64.81,.03-95.93,12.19,10.55,23.99,20.77,35.8,31,4.55,3.94,9.81,4.67,15.13,2.39,7.22-3.1,8.16-9.84,7.33-16.39-.51-4.04-2.19-8.75-4.96-11.55-19.1-19.28-38.44-38.33-58.12-57.01-7.21-6.85-16.26-7.26-23.56-.34-20.46,19.42-40.84,38.98-60.22,59.46-6.18,6.53-6.63,16.84,.86,23.54,8.16,7.29,15.35,3.19,22.07-4.37,9.07-10.2,16.37-22.58,31.85-29.83Z"/>
  <path class="cls-2" d="M163.02,138.92c-15.49,7.25-22.78,19.63-31.85,29.83-6.72,7.56-13.91,11.66-22.07,4.37-7.49-6.7-7.04-17.01-.86-23.54,19.38-20.48,39.76-40.04,60.22-59.46,7.3-6.93,16.35-6.51,23.56,.34,19.68,18.68,39.02,37.74,58.12,57.01,2.77,2.8,4.45,7.51,4.96,11.55,.82,6.55-.11,13.29-7.33,16.39-5.33,2.29-10.58,1.55-15.13-2.39-11.81-10.22-23.62-20.45-35.8-31,0,31.13,.04,63.53-.03,95.93-.02,7.59,.24,15.28-.86,22.74-1.26,8.49-7.22,13.49-15.76,13.62-8.53,.12-14.76-4.65-16.17-13.12-1.24-7.43-.92-15.14-.94-22.73-.08-32.47-.04-64.94-.04-99.53Z"/>
</svg>