<?xml version="1.0" encoding="UTF-8"?>
<svg id="Layer_2" data-name="Layer 2" xmlns="http://www.w3.org/2000/svg" viewBox="0 0 160.23 107.05">
  <defs>
    <style>
      .cls-1 {
        fill: #fff;
      }

      .cls-2 {
        fill: #cdcdcd;
      }
    </style>
  </defs>
  <g id="Layer_1-2" data-name="Layer 1">
    <g>
      <path class="cls-2" d="M160.18,52.93c0,15.45,.05,30.9-.02,46.34-.03,6.48-.98,7.43-7.13,7.55-4.6,.09-9.2,.11-13.8,0-5.47-.13-6.6-1.3-6.69-7-.1-6.57-.03-13.15-.03-19.72,0-23.99-.03-47.99,.02-71.98,.01-7.1,.84-7.91,7.67-8,5.26-.07,10.53,.24,15.77-.1,3.78-.25,4.28,1.4,4.26,4.59-.12,16.1-.06,32.21-.05,48.32Z"/>
      <path class="cls-1" d="M116.49,66.42c0,11.16,.07,22.32-.03,33.48-.05,5.76-1.2,6.9-6.74,7.05-4.26,.11-8.53,.03-12.8-.05-7.19-.13-7.93-.77-7.96-7.75-.07-16.74-.02-33.48-.02-50.22,0-5.91-.07-11.82,.02-17.73,.09-5.77,1.19-6.95,6.62-7.1,4.59-.12,9.2-.25,13.78,0,5.45,.3,7.09,2.23,7.11,7.84,.04,11.49,.01,22.98,.01,34.47Z"/>
      <path class="cls-1" d="M73.11,79.2c0,7.23,.12,14.45-.04,21.68-.1,4.54-1.42,5.91-5.74,6.04-5.91,.17-11.82,.17-17.73,0-4.24-.12-5.77-1.64-5.81-5.98-.13-15.1-.15-30.2-.05-45.3,.03-4.38,1.53-5.89,5.79-6.03,5.91-.19,11.83-.18,17.73-.01,4.38,.13,5.71,1.46,5.8,5.96,.16,7.88,.04,15.76,.05,23.65Z"/>
      <path class="cls-1" d="M27.82,89.43c-.87,5.48,1.55,11.42-1.27,17-5.5,1.12-11.05,.25-16.57,.46-1.31,.05-2.62,.15-3.92,.08-4.68-.24-5.84-1.17-5.92-5.74-.17-8.83-.18-17.66-.06-26.48,.05-3.65,1.67-5.18,5.4-5.28,5.55-.15,11.12-.18,16.67,0,4.28,.14,5.55,1.59,5.65,5.99,.1,4.58,.02,9.15,.02,13.97Z"/>
    </g>
  </g>
</svg>