<?xml version="1.0" encoding="UTF-8"?>
<svg id="Layer_1" data-name="Layer 1" xmlns="http://www.w3.org/2000/svg" viewBox="0 0 534.4 320.92">
  <defs>
    <style>
      .cls-1 {
        fill: #27272a;
      }
    </style>
  </defs>
  <path class="cls-1" d="M63.7,198.71c-1.98-24.16-6.31-45.54-4.89-66.54,2.59-38.18,18.79-70.52,48.2-96.46C138.02,8.34,173.54-.94,214.18,.07c60.59,1.51,121.25,.31,181.88,.44,69.97,.15,128.88,56.02,137.22,125.59,5.13,42.83-7.86,79.09-32.97,110.84-24.51,30.99-58.94,49.32-98.85,50.26-69.95,1.64-139.98,1.28-209.93-.13-17.08-.34-34.27-7.22-50.91-12.62-8.34-2.71-14.21-2.59-20.63,3.52-13.97,13.3-30.17,17.75-48.59,10.03-19.77-8.29-30.07-22.03-30.48-44.71-.37-20.77,7.93-35.19,22.76-44.59Z"/>
  <path class="cls-1" d="M41.56,300.18c0,13.36-7.06,20.58-20.31,20.74C7.33,321.09,0,313.9,0,300.09c0-13.77,7.36-20.92,21.34-20.73,13.2,.17,20.22,7.4,20.23,20.83Z"/>
</svg>