<?xml version="1.0" encoding="UTF-8"?>
<svg id="Layer_2" data-name="Layer 2" xmlns="http://www.w3.org/2000/svg" viewBox="0 0 152.96 103.88">
  <defs>
    <style>
      .cls-1 {
        fill: #fff;
      }

      .cls-2 {
        fill: #cececd;
      }
    </style>
  </defs>
  <g id="Layer_1-2" data-name="Layer 1">
    <g>
      <path class="cls-2" d="M139.61,48.51C105.98,18.41,65.56,5.26,11.92,44.09c-3.77-4-7.91-8.39-11.92-12.64C38.4-12.91,119.25-9.49,152.96,36.32c-4.25,3.89-8.56,7.82-13.34,12.2Z"/>
      <path class="cls-1" d="M122.56,63.4c-4.97,4.26-9.95,8.52-14.85,12.72-23.92-18.92-41.14-19.56-64.2-2.21-4.4-4.77-8.87-9.61-13.37-14.49,22.12-27.06,70.14-25.22,92.42,3.97Z"/>
      <path class="cls-1" d="M95.9,86.12c-7.46,6.36-14.26,12.15-20.84,17.76-6.73-6.61-13.27-13.01-19.79-19.42,12.27-12.15,26.82-11.75,40.64,1.65Z"/>
    </g>
  </g>
</svg>